<?xml version="1.0" encoding="UTF-8"?>
<svg width="96" height="96" viewBox="0 0 96 96" fill="none" xmlns="http://www.w3.org/2000/svg" role="img" aria-label="Harbor Holdings IP mark">
  <defs>
    <linearGradient id="g" x1="18" y1="16" x2="78" y2="80" gradientUnits="userSpaceOnUse">
      <stop stop-color="#7FE7D6"/>
      <stop offset="1" stop-color="#C8A96A"/>
    </linearGradient>
    <filter id="s" x="-20%" y="-20%" width="140%" height="140%" color-interpolation-filters="sRGB">
      <feDropShadow dx="0" dy="6" stdDeviation="6" flood-color="#000000" flood-opacity="0.25"/>
    </filter>
  </defs>

  <!-- Harbor ring -->
  <circle cx="48" cy="48" r="34" stroke="url(#g)" stroke-width="2.5" opacity="0.9"/>

  <!-- Stylized anchor + H monogram -->
  <g filter="url(#s)" stroke="url(#g)" stroke-width="3" stroke-linecap="round" stroke-linejoin="round">
    <!-- Anchor stem -->
    <path d="M48 22V52"/>
    <!-- Anchor stock -->
    <path d="M38 26H58"/>
    <!-- Anchor arms -->
    <path d="M32 52C32 64 40 72 48 72C56 72 64 64 64 52"/>
    <path d="M32 52C36 52 38 50 40 48"/>
    <path d="M64 52C60 52 58 50 56 48"/>
    <!-- H crossbars (subtle) -->
    <path d="M39 40V57"/>
    <path d="M57 40V57"/>
    <path d="M39 49H57"/>
  </g>

  <!-- Waterline -->
  <path d="M20 62C28 58 34 66 42 62C50 58 56 66 64 62C72 58 76 64 80 62" stroke="url(#g)" stroke-width="2" opacity="0.65" stroke-linecap="round"/>
</svg>
